<svg width="340" height="126" viewBox="0 0 340 126" fill="none" xmlns="http://www.w3.org/2000/svg">
<rect x="164" y="10" width="176" height="106" rx="10" fill="#512BD4"/>
<g clip-path="url(#clip0_912_140)">
<path d="M315 46.0426H302.043V85.7588H294.562V46.0426H281.636V39.5326H315V46.0426ZM279.027 85.7588H253.717V39.5326H278.024V46.0426H261.198V59.1361H276.701V65.6146H261.198V79.2856H279.027V85.7588ZM243.81 85.7588H235.631L214.095 51.7808C213.556 50.9352 213.103 50.0383 212.741 49.1033H212.552C212.72 50.0956 212.804 52.2113 212.804 55.4558V85.7588H205.574V39.5326H214.284L235.1 72.7126C235.977 74.0828 236.544 75.0331 236.796 75.5476H236.922C236.712 74.3243 236.607 72.2453 236.607 69.3263V39.5273H243.81V85.7588ZM198.119 82.1206C198.119 82.6926 198.001 83.2589 197.772 83.7873C197.543 84.3157 197.206 84.7957 196.783 85.1999C196.359 85.6041 195.856 85.9246 195.303 86.143C194.749 86.3614 194.156 86.4735 193.557 86.4729C192.958 86.4729 192.365 86.3601 191.812 86.1411C191.259 85.922 190.756 85.6009 190.333 85.1962C189.91 84.7915 189.574 84.3111 189.345 83.7825C189.117 83.2538 188.999 82.6873 189 82.1153C189.001 80.962 189.482 79.8563 190.337 79.0412C191.191 78.2262 192.349 77.7683 193.557 77.7683C194.156 77.7677 194.749 77.8798 195.303 78.0982C195.856 78.3166 196.359 78.6371 196.783 79.0413C197.206 79.4455 197.543 79.9255 197.772 80.4539C198.001 80.9823 198.119 81.5486 198.119 82.1206V82.1206Z" fill="white"/>
</g>
<g clip-path="url(#clip1_912_140)">
<path d="M62.9318 74.2245L46.4887 100.07L19.2255 55.8285L19.1625 102.144H0V23.856H19.3777L46.9245 70.2292L46.9507 49.2397L62.9318 74.2245V74.2245ZM66.087 43.9792C66.213 43.7272 66.087 24.1132 66.129 23.856H46.9665C46.977 24.1657 46.9402 43.68 46.9507 43.9792H66.087V43.9792ZM95.6655 65.6827C93.4288 65.6397 91.2337 66.2911 89.3824 67.5472C87.5312 68.8033 86.1148 70.6024 85.3283 72.6967C86.6313 70.747 88.5602 69.3 90.7966 68.5946C93.0331 67.8892 95.4432 67.9677 97.629 68.817C99.708 69.6622 102.443 71.0325 104.612 70.3027C103.594 68.8776 102.252 67.7152 100.697 66.9118C99.141 66.1084 97.4164 65.6871 95.6655 65.6827V65.6827ZM113.463 71.253C111.494 70.5705 109.263 69.7987 107.641 67.6777C107.326 67.2577 107.032 66.7852 106.717 66.2865C106.014 64.9905 105.063 63.8453 103.919 62.916C102.375 61.782 100.349 61.2255 97.7235 61.2255C95.1432 61.2261 92.6212 61.9929 90.4771 63.4285C88.333 64.8641 86.6635 66.9039 85.68 69.2895C86.9268 67.5538 88.6075 66.1759 90.5539 65.2935C92.5004 64.4112 94.6443 64.0553 96.7715 64.2615C98.8986 64.4678 100.934 65.2288 102.675 66.4687C104.416 67.7085 105.8 69.3836 106.691 71.3265C107.134 72.0543 107.801 72.6188 108.593 72.935C109.384 73.2511 110.257 73.302 111.08 73.08C113.668 72.5287 113.495 74.97 117.395 75.7995V75.1012C117.38 72.7597 116.104 72.2137 113.458 71.253H113.463ZM124.089 77.8995C124.661 77.5515 125.131 77.0583 125.451 76.47C125.771 75.8818 125.93 75.2193 125.911 74.55C125.858 59.0257 113.258 45.7432 97.7183 45.7432C93.0469 45.7394 88.448 46.8976 84.3357 49.1137C80.2235 51.3297 76.7271 54.534 74.1615 58.4377C74.109 58.3012 66.171 45.8902 66.087 45.7432H46.9507L65.1315 74.214L47.3918 102.144H65.9768L74.0618 89.7225L82.2938 102.144H100.884L84.0315 75.621C83.7524 75.1042 83.6012 74.5281 83.5905 73.941C83.5898 72.0859 83.9546 70.2489 84.664 68.5349C85.3734 66.8209 86.4136 65.2634 87.725 63.9514C89.0365 62.6395 90.5936 61.5988 92.3073 60.8887C94.0211 60.1787 95.858 59.8132 97.713 59.8132H97.7183C105.53 59.8132 106.832 64.4857 108.518 66.6802C111.846 71.0167 118.492 69.1162 118.492 74.7705C118.504 75.419 118.686 76.0531 119.019 76.6096C119.353 77.166 119.826 77.6254 120.392 77.942C120.958 78.2585 121.598 78.4212 122.246 78.4137C122.895 78.4062 123.53 78.2289 124.089 77.8995V77.8995ZM125.927 78.5977C125.018 80.5507 122.987 80.3722 121.963 81.9525C121.039 83.3752 122.561 84.1155 122.561 84.1155C122.561 84.1155 124.33 84.9345 125.386 82.4827C125.932 81.27 126.121 79.9207 125.927 78.5977V78.5977Z" fill="#2B2B2B"/>
</g>
<defs>
<clipPath id="clip0_912_140">
<rect width="126" height="126" fill="white" transform="translate(189)"/>
</clipPath>
<clipPath id="clip1_912_140">
<rect width="126" height="126" fill="white"/>
</clipPath>
</defs>
</svg>
